<svg width="467" height="85" viewBox="0 0 467 85" fill="none" xmlns="http://www.w3.org/2000/svg">
<path d="M140.106 44.3027C142.167 40.2983 144.982 37.2057 148.524 35.0516C152.066 32.8974 156.031 31.8137 160.405 31.8137C164.225 31.8137 167.581 32.5802 170.449 34.1265C173.317 35.6727 175.617 37.6154 177.335 39.9546V32.6463H190.379V83.8974H177.335V76.404C175.67 78.8092 173.37 80.8049 170.449 82.3643C167.515 83.937 164.145 84.73 160.313 84.73C155.991 84.73 152.066 83.6198 148.524 81.3996C144.982 79.1793 142.167 76.0471 140.106 72.0031C138.044 67.959 137 63.3203 137 58.0736C137 52.8269 138.031 48.2939 140.106 44.2894V44.3027ZM175.498 50.1705C174.269 47.9238 172.604 46.1925 170.502 44.9899C168.401 43.7872 166.154 43.1793 163.749 43.1793C161.344 43.1793 159.123 43.7608 157.088 44.937C155.053 46.1132 153.401 47.8181 152.132 50.0648C150.863 52.3115 150.242 54.9811 150.242 58.0604C150.242 61.1397 150.877 63.8489 152.132 66.1485C153.401 68.4612 155.066 70.2322 157.128 71.4745C159.189 72.7035 161.396 73.3247 163.736 73.3247C166.075 73.3247 168.388 72.73 170.489 71.5273C172.59 70.3247 174.255 68.5934 175.485 66.3467C176.714 64.1 177.335 61.3908 177.335 58.2586C177.335 55.1264 176.714 52.4172 175.485 50.1705H175.498Z" fill="#07448C"/>
<path d="M226.564 43.285H217.59V83.8974H204.454V43.285H198.626V32.6463H204.454V30.056C204.454 23.7652 206.238 19.1397 209.819 16.1793C213.401 13.219 218.793 11.8313 226.009 12.0163V22.9326C222.864 22.8665 220.67 23.3952 219.441 24.5053C218.212 25.6154 217.59 27.6243 217.59 30.5185V32.6463H226.564V43.285Z" fill="#07448C"/>
<path d="M244.418 81.4392C240.467 79.2454 237.374 76.1529 235.114 72.1485C232.868 68.1441 231.744 63.5185 231.744 58.2718C231.744 53.0251 232.907 48.3996 235.207 44.3952C237.52 40.3908 240.678 37.285 244.683 35.0912C248.687 32.8974 253.167 31.8004 258.097 31.8004C263.026 31.8004 267.507 32.8974 271.511 35.0912C275.515 37.285 278.674 40.3776 280.987 44.3952C283.299 48.3996 284.449 53.0251 284.449 58.2718C284.449 63.5185 283.26 68.1441 280.881 72.1485C278.502 76.1529 275.304 79.2586 271.26 81.4392C267.216 83.633 262.709 84.7299 257.714 84.7299C252.718 84.7299 248.343 83.633 244.392 81.4392H244.418ZM264.348 71.7256C266.41 70.589 268.062 68.8709 269.304 66.5978C270.546 64.3247 271.154 61.5361 271.154 58.2718C271.154 53.3952 269.872 49.6551 267.308 47.0383C264.744 44.4216 261.625 43.1 257.925 43.1C254.225 43.1 251.119 44.4084 248.621 47.0383C246.123 49.6551 244.881 53.4084 244.881 58.2718C244.881 63.1353 246.097 66.8886 248.529 69.5053C250.96 72.122 254.04 73.4304 257.727 73.4304C260.066 73.4304 262.273 72.8621 264.335 71.7256H264.348Z" fill="#07448C"/>
<path d="M313.471 34.219C316.154 32.6727 319.22 31.9062 322.67 31.9062V45.5053H319.247C315.176 45.5053 312.11 46.4569 310.035 48.3732C307.974 50.2895 306.943 53.6199 306.943 58.3643V83.8974H293.991V32.6463H306.943V40.6022C308.608 37.893 310.789 35.7652 313.471 34.219Z" fill="#07448C"/>
<path d="M330.216 44.3026C332.278 40.2982 335.106 37.2057 338.674 35.0515C342.256 32.8973 346.234 31.8136 350.608 31.8136C353.938 31.8136 357.11 32.5405 360.137 33.9942C363.163 35.448 365.568 37.3643 367.352 39.7828V15.4524H380.489V83.9106H367.352V76.3246C365.753 78.8489 363.493 80.8841 360.599 82.4304C357.705 83.9766 354.335 84.7432 350.515 84.7432C346.194 84.7432 342.256 83.633 338.674 81.4128C335.093 79.1925 332.278 76.0603 330.216 72.0163C328.154 67.9722 327.11 63.3335 327.11 58.0868C327.11 52.8401 328.141 48.307 330.216 44.3026ZM365.608 50.1705C364.379 47.9238 362.714 46.1925 360.612 44.9899C358.511 43.7872 356.264 43.1793 353.859 43.1793C351.454 43.1793 349.234 43.7608 347.198 44.937C345.163 46.1132 343.511 47.818 342.242 50.0647C340.974 52.3114 340.352 54.981 340.352 58.0603C340.352 61.1396 340.987 63.8489 342.242 66.1484C343.511 68.4612 345.176 70.2321 347.238 71.4744C349.3 72.7035 351.507 73.3247 353.846 73.3247C356.185 73.3247 358.498 72.7299 360.599 71.5273C362.701 70.3247 364.366 68.5934 365.595 66.3467C366.824 64.1 367.445 61.3907 367.445 58.2586C367.445 55.1264 366.824 52.4172 365.595 50.1705H365.608Z" fill="#07448C"/>
<path d="M392.013 44.3027C394.075 40.2983 396.89 37.2057 400.432 35.0516C403.973 32.8974 407.938 31.8137 412.313 31.8137C416.132 31.8137 419.489 32.5802 422.357 34.1265C425.225 35.6727 427.524 37.6154 429.242 39.9546V32.6463H442.286V83.8974H429.242V76.404C427.577 78.8092 425.277 80.8049 422.357 82.3643C419.423 83.937 416.053 84.73 412.22 84.73C407.899 84.73 403.973 83.6198 400.432 81.3996C396.89 79.1793 394.075 76.0471 392.013 72.0031C389.951 67.959 388.907 63.3203 388.907 58.0736C388.907 52.8269 389.938 48.2939 392.013 44.2894V44.3027ZM427.405 50.1705C426.176 47.9238 424.511 46.1925 422.41 44.9899C420.308 43.7872 418.062 43.1793 415.656 43.1793C413.251 43.1793 411.031 43.7608 408.996 44.937C406.96 46.1132 405.308 47.8181 404.04 50.0648C402.771 52.3115 402.15 54.9811 402.15 58.0604C402.15 61.1397 402.784 63.8489 404.04 66.1485C405.308 68.4612 406.974 70.2322 409.035 71.4745C411.097 72.7035 413.304 73.3247 415.643 73.3247C417.982 73.3247 420.295 72.73 422.396 71.5273C424.498 70.3247 426.163 68.5934 427.392 66.3467C428.621 64.1 429.242 61.3908 429.242 58.2586C429.242 55.1264 428.621 52.4172 427.392 50.1705H427.405Z" fill="#07448C"/>
<path d="M467 15.4392V83.8974H454.048V15.4392H467Z" fill="#07448C"/>
<g clip-path="url(#clip0_1234_7748)">
<path d="M82.9687 55.6495V80.235C82.9687 82.3796 81.2121 84.1237 79.0521 84.1237H34.9682C32.8083 84.1237 31.0517 82.3796 31.0517 80.235V55.6495C31.0517 53.5049 32.8083 51.7608 34.9682 51.7608C37.1282 51.7608 38.8848 53.5049 38.8848 55.6495V76.3463H75.1226V55.6495C75.1226 53.5049 76.8791 51.7608 79.0391 51.7479C81.199 51.7479 82.9556 53.492 82.9687 55.6366V55.6495ZM86.651 49.0219L57.0102 27.9763L27.3564 49.0219C26.6928 49.4999 25.899 49.7583 25.0793 49.7583C22.9194 49.8229 21.0977 48.1434 21.0326 45.9858C20.9936 44.6681 21.6182 43.4278 22.6981 42.6785L54.7331 20.0051C56.0993 19.0361 57.934 19.0361 59.3002 20.0051L91.2441 42.6785C93.0137 43.9317 93.4171 46.3734 92.142 48.1304C90.8798 49.8875 88.4206 50.288 86.651 49.0219Z" fill="#0063E9"/>
<path d="M106.755 81.9553C106.116 83.2331 104.812 84.0721 103.377 84.1237H93.3997C91.2347 84.1237 89.474 82.3812 89.474 80.2258C89.474 78.0832 91.2347 76.3407 93.3997 76.3407H100.834C111.894 52.3851 101.238 24.0926 77.0318 13.1474C52.8255 2.20215 24.237 12.7473 13.1772 36.7029C10.321 42.8854 8.83416 49.5842 8.82112 56.3734C8.82112 63.24 10.2949 70.0162 13.1511 76.2762H20.6113C22.7763 76.2762 24.537 78.0186 24.537 80.1741C24.537 82.3167 22.7763 84.0592 20.6113 84.0592H10.6992C9.22543 84.0592 7.88208 83.2589 7.20389 81.9553C-7.0773 54.76 3.63033 21.2531 31.1233 7.13267C58.6162 -6.98773 92.4607 3.59612 106.729 30.8043C110.876 38.7035 113.041 47.4804 113.041 56.3863C113.041 65.2793 110.889 74.0561 106.781 81.9682L106.755 81.9553Z" fill="#07448C"/>
</g>
<defs>
<clipPath id="clip0_1234_7748">
<rect width="113.041" height="85" fill="white"/>
</clipPath>
</defs>
</svg>
