<svg width="129" height="97" viewBox="0 0 129 97" fill="none" xmlns="http://www.w3.org/2000/svg">
<path d="M94.6819 63.5059V91.5623C94.6819 94.0097 92.6773 96 90.2124 96H39.905C37.4401 96 35.4355 94.0097 35.4355 91.5623V63.5059C35.4355 61.0585 37.4401 59.0682 39.905 59.0682C42.3698 59.0682 44.3744 61.0585 44.3744 63.5059V87.1246H85.7281V63.5059C85.7281 61.0585 87.7327 59.0682 90.1976 59.0534C92.6625 59.0534 94.667 61.0438 94.6819 63.4912V63.5059ZM98.8841 55.9426L65.0587 31.9259L31.2185 55.9426C30.4612 56.4881 29.5554 56.783 28.6199 56.783C26.155 56.8567 24.0762 54.9401 24.002 52.478C23.9574 50.9741 24.6702 49.5588 25.9026 48.7037L62.4602 22.8293C64.0193 21.7236 66.113 21.7236 67.6721 22.8293L104.126 48.7037C106.145 50.1338 106.605 52.9203 105.15 54.9253C103.71 56.9304 100.904 57.3875 98.8841 55.9426Z" fill="#00D6FF"/>
<path d="M121.826 93.5255C121.097 94.9837 119.609 95.9411 117.971 96H106.586C104.115 96 102.106 94.0116 102.106 91.5518C102.106 89.1067 104.115 87.1182 106.586 87.1182H115.069C127.69 59.7806 115.53 27.494 87.9068 15.0035C60.2832 2.51305 27.6587 14.5469 15.0375 41.8845C11.7781 48.9398 10.0813 56.5844 10.0665 64.332C10.0665 72.168 11.7483 79.9009 15.0078 87.0446H23.5211C25.9917 87.0446 28.001 89.033 28.001 91.4928C28.001 93.9379 25.9917 95.9264 23.5211 95.9264H12.2097C10.5279 95.9264 8.99486 95.0131 8.22092 93.5255C-8.07644 62.4908 4.14286 24.2535 35.5171 8.13965C66.8914 -7.97422 105.514 4.10381 121.796 35.1532C126.529 44.1675 129 54.1835 129 64.3467C129 74.4952 126.544 84.5111 121.856 93.5402L121.826 93.5255Z" fill="white"/>
</svg>
