<svg width="24" height="24" viewBox="0 0 24 24" fill="none" xmlns="http://www.w3.org/2000/svg">
<mask id="mask0_2819_65387" style="mask-type:alpha" maskUnits="userSpaceOnUse" x="0" y="0" width="24" height="24">
<rect width="24" height="24" fill="#D9D9D9"/>
</mask>
<g mask="url(#mask0_2819_65387)">
<path d="M5.64999 10.0249L7.59999 10.8499C7.83332 10.3832 8.07499 9.93319 8.32499 9.49986C8.57499 9.06653 8.84999 8.63319 9.14999 8.19986L7.74999 7.92486L5.64999 10.0249ZM9.19999 12.0999L12.05 14.9249C12.75 14.6582 13.5 14.2499 14.3 13.6999C15.1 13.1499 15.85 12.5249 16.55 11.8249C17.7167 10.6582 18.6292 9.36236 19.2875 7.93736C19.9458 6.51236 20.2333 5.19986 20.15 3.99986C18.95 3.91653 17.6333 4.20403 16.2 4.86236C14.7667 5.52069 13.4667 6.43319 12.3 7.59986C11.6 8.29986 10.975 9.04986 10.425 9.84986C9.87499 10.6499 9.46665 11.3999 9.19999 12.0999ZM13.65 10.4749C13.2667 10.0915 13.075 9.62069 13.075 9.06236C13.075 8.50403 13.2667 8.0332 13.65 7.64986C14.0333 7.26653 14.5083 7.07486 15.075 7.07486C15.6417 7.07486 16.1167 7.26653 16.5 7.64986C16.8833 8.0332 17.075 8.50403 17.075 9.06236C17.075 9.62069 16.8833 10.0915 16.5 10.4749C16.1167 10.8582 15.6417 11.0499 15.075 11.0499C14.5083 11.0499 14.0333 10.8582 13.65 10.4749ZM14.125 18.4999L16.225 16.3999L15.95 14.9999C15.5167 15.2999 15.0833 15.5707 14.65 15.8124C14.2167 16.054 13.7667 16.2915 13.3 16.5249L14.125 18.4999ZM21.95 2.17486C22.2667 4.19153 22.0708 6.15403 21.3625 8.06236C20.6542 9.9707 19.4333 11.7915 17.7 13.5249L18.2 15.9999C18.2667 16.3332 18.25 16.6582 18.15 16.9749C18.05 17.2915 17.8833 17.5665 17.65 17.7999L13.45 21.9999L11.35 17.0749L7.07499 12.7999L2.14999 10.6999L6.32499 6.49986C6.55832 6.26653 6.83749 6.09986 7.16249 5.99986C7.48749 5.89986 7.81665 5.88319 8.14999 5.94986L10.625 6.44986C12.3583 4.71653 14.175 3.49153 16.075 2.77486C17.975 2.05819 19.9333 1.85819 21.95 2.17486ZM3.92499 15.9749C4.50832 15.3915 5.22082 15.0957 6.06249 15.0874C6.90415 15.079 7.61665 15.3665 8.19999 15.9499C8.78332 16.5332 9.07082 17.2457 9.06249 18.0874C9.05415 18.929 8.75832 19.6415 8.17499 20.2249C7.75832 20.6415 7.06249 20.9999 6.08749 21.2999C5.11249 21.5999 3.76665 21.8665 2.04999 22.0999C2.28332 20.3832 2.54999 19.0374 2.84999 18.0624C3.14999 17.0874 3.50832 16.3915 3.92499 15.9749ZM5.34999 17.3749C5.18332 17.5415 5.01665 17.8457 4.84999 18.2874C4.68332 18.729 4.56665 19.1749 4.49999 19.6249C4.94999 19.5582 5.39582 19.4457 5.83749 19.2874C6.27915 19.129 6.58332 18.9665 6.74999 18.7999C6.94999 18.5999 7.05832 18.3582 7.07499 18.0749C7.09165 17.7915 6.99999 17.5499 6.79999 17.3499C6.59999 17.1499 6.35832 17.054 6.07499 17.0624C5.79165 17.0707 5.54999 17.1749 5.34999 17.3749Z" fill="#0063E9"/>
</g>
</svg>
