<svg width="24" height="24" viewBox="0 0 24 24" fill="none" xmlns="http://www.w3.org/2000/svg">
<mask id="mask0_2819_65419" style="mask-type:alpha" maskUnits="userSpaceOnUse" x="0" y="0" width="24" height="24">
<rect width="24" height="24" fill="#D9D9D9"/>
</mask>
<g mask="url(#mask0_2819_65419)">
<path d="M5.92482 21C5.54148 21 5.17065 20.8667 4.81232 20.6C4.45398 20.3333 4.21648 20.0083 4.09982 19.625C3.68315 18.225 3.34148 17.0125 3.07482 15.9875C2.80815 14.9625 2.59565 14.0625 2.43732 13.2875C2.27898 12.5125 2.16648 11.825 2.09982 11.225C2.03315 10.625 1.99982 10.05 1.99982 9.5C1.99982 7.96667 2.53315 6.66667 3.59982 5.6C4.66648 4.53333 5.96648 4 7.49982 4H12.4998C12.9498 3.4 13.5207 2.91667 14.2123 2.55C14.904 2.18333 15.6665 2 16.4998 2C16.9165 2 17.2707 2.14583 17.5623 2.4375C17.854 2.72917 17.9998 3.08333 17.9998 3.5C17.9998 3.6 17.9873 3.7 17.9623 3.8C17.9373 3.9 17.9082 3.99167 17.8748 4.075C17.8082 4.25833 17.7457 4.44167 17.6873 4.625C17.629 4.80833 17.5832 5.00833 17.5498 5.225L19.8248 7.5H20.9998C21.2832 7.5 21.5206 7.59583 21.7123 7.7875C21.904 7.97917 21.9998 8.21667 21.9998 8.5V13.75C21.9998 13.9667 21.9373 14.1583 21.8123 14.325C21.6873 14.4917 21.5165 14.6167 21.2998 14.7L19.1748 15.4L17.9248 19.575C17.7915 20.0083 17.5498 20.3542 17.1998 20.6125C16.8498 20.8708 16.4498 21 15.9998 21H13.9998C13.4498 21 12.979 20.8042 12.5873 20.4125C12.1957 20.0208 11.9998 19.55 11.9998 19H9.99982C9.99982 19.55 9.80398 20.0208 9.41232 20.4125C9.02065 20.8042 8.54982 21 7.99982 21H5.92482ZM5.99982 19H7.99982V17H13.9998V19H15.9998L17.5498 13.85L19.9998 13.025V9.5H18.9998L15.4998 6C15.4998 5.66667 15.5207 5.34167 15.5623 5.025C15.604 4.70833 15.6665 4.4 15.7498 4.1C15.2665 4.23333 14.8415 4.4625 14.4748 4.7875C14.1082 5.1125 13.8415 5.51667 13.6748 6H7.49982C6.53315 6 5.70815 6.34167 5.02482 7.025C4.34148 7.70833 3.99982 8.53333 3.99982 9.5C3.99982 10.1833 4.17482 11.3542 4.52482 13.0125C4.87482 14.6708 5.36648 16.6667 5.99982 19ZM15.9998 11C16.2832 11 16.5207 10.9042 16.7123 10.7125C16.904 10.5208 16.9998 10.2833 16.9998 10C16.9998 9.71667 16.904 9.47917 16.7123 9.2875C16.5207 9.09583 16.2832 9 15.9998 9C15.7165 9 15.479 9.09583 15.2873 9.2875C15.0957 9.47917 14.9998 9.71667 14.9998 10C14.9998 10.2833 15.0957 10.5208 15.2873 10.7125C15.479 10.9042 15.7165 11 15.9998 11ZM11.9998 9C12.2832 9 12.5207 8.90417 12.7123 8.7125C12.904 8.52083 12.9998 8.28333 12.9998 8C12.9998 7.71667 12.904 7.47917 12.7123 7.2875C12.5207 7.09583 12.2832 7 11.9998 7H8.99982C8.71648 7 8.47898 7.09583 8.28732 7.2875C8.09565 7.47917 7.99982 7.71667 7.99982 8C7.99982 8.28333 8.09565 8.52083 8.28732 8.7125C8.47898 8.90417 8.71648 9 8.99982 9H11.9998Z" fill="#0063E9"/>
</g>
</svg>
